#!OML:ASF F:\VICON\USERDATA\INSTALL\rory3\rory3.ASF
:FULLY-SPECIFIED
:DEGREES
36
root 0.38612793618172225 17.79674194005691 28.53813597621059 -2.6607067937639095 1.2267068187348624 2.34934810770018
lfemur 27.97679647825595 -6.696055861736734 -26.608559923720744
ltibia 16.741906140273787
lfoot -0.4197639612605588 -11.391969758031586
ltoes -21.559858357563446
rfemur -41.187969515310954 3.5786257062342575 18.05485094448626
rtibia 19.00061697477076
rfoot -7.196811101088439 -10.192578947021318
rtoes -1.0158280513193008
lowerback 8.96853827973117 -2.7702330793025194 -5.313638714103624
upperback 0.33578601066432706 -4.201714189720537 2.2662715569109335
thorax -4.561459158929724 -1.8786425444264903 5.999539365627097
lowerneck -16.45300497011375 -1.6688231683451111 -2.4916930041951786
upperneck 22.023505834884645 -1.7413705273335487 -0.13303820158669355
head 9.668151878140769 -0.9708478588932421 0.09271417080739114
lclavicle -1.5673311943234951e-15 -1.2794954577352444e-15
lhumerus -14.17498809221454 -2.757374894105754 78.03124449354964
lradius 21.545704254767557
lwrist 5.358706863577691
lhand -31.015260385598722 23.431272605463505
lfingers 7.125020000000055
lthumb -4.297580765750129 53.378561169214535
rclavicle -1.567331194323495e-15 -1.2794954577352448e-15
rhumerus -43.394481666710085 -37.60490951657957 -66.68210483942609
rradius 7.742681938930971
rwrist 16.386501989512144
rhand -17.405768118699587 28.996736967920565
rfingers 7.125020000000055
rthumb 8.844508569029065 -8.667027787665688
37
root 0.376166887016825 17.945203152503012 28.18907879571712 -4.056620049836751 0.10318321700503197 0.5352485394792583
lfemur 24.616585432367323 -6.26502459378136 -23.50538282048596
ltibia 28.110153378106478
lfoot 11.361091731965582 -15.963969410678974
ltoes -17.84704342560462
rfemur -36.60099686272289 4.119257026266984 21.403376041147602
rtibia 17.173212252787085
rfoot -6.692473443335627 -6.998664806674637
rtoes 2.868374325506406
lowerback 8.468203799659806 -2.7453965563664564 -3.7088571210711843
upperback 0.29493132897767554 -3.9516626793397522 2.8655292685555276
thorax -4.430712157694069 -1.7824052757287205 5.586587136683285
lowerneck -15.84766673505728 -1.4337913448269735 -2.3749167390594033
upperneck 23.42628315935763 -1.3587947813565129 -0.8744318691285464
head 9.98759713457273 -0.8497644091526637 -0.1266825967791435
lclavicle -1.871154136540736e-15 -1.514772332250746e-15
lhumerus -15.360845660564273 -0.2920768783087322 76.99675096584542
lradius 12.523166140207167
lwrist 2.193346375634288
lhand -30.548697306198314 24.791501006129316
lfingers 7.125020000000054
lthumb -3.846997168243141 54.73577328108278
rclavicle -1.8711541365407365e-15 -1.5147723322507457e-15
rhumerus -42.56657577170345 -41.56599545631079 -64.09153320363818
rradius 0.49297106843605576
rwrist 18.747537108177514
rhand -17.257337816200483 28.824091141714806
rfingers 7.125020000000054
rthumb 8.987831327314932 -9.487947976403486
38
root 0.29579907589708654 18.165599359307247 27.742901471597794 -4.5747806996423765 -0.17604820774572105 -0.5888588788177747
lfemur 21.574700995575995 -4.858453720426427 -21.655148475577352
ltibia 45.41373217612867
lfoot 22.296520694793024 -21.043599458888792
ltoes -14.475256313322397
rfemur -34.872752783652885 4.463093388962768 24.024505801166043
rtibia 15.107774085220768
rfoot -6.2393550592196325 -5.588689144162367
rtoes 5.06967714625428
lowerback 8.697503463341366 -2.986199223560068 -2.6012060085661295
upperback 0.19808067212800662 -4.04991348289738 3.407770643324519
thorax -4.771099746329975 -1.8611210128064735 5.525988182884069
lowerneck -15.50083481778578 -1.3498359742063641 -2.393232580683285
upperneck 23.68966840163127 -1.1975029927817324 -1.1410683571363003
head 10.000035660623448 -0.8019219377827278 -0.18664144448141495
lclavicle -1.8669322845678708e-15 -1.5112637351394623e-15
lhumerus -17.925751204375533 -0.4313730169516128 78.13774101988626
lradius 15.633820206520383
lwrist 3.166766527727935
lhand -29.68096513473432 24.306812053548356
lfingers 7.125020000000054
lthumb -3.0091201655454585 54.25104024607103
rclavicle -1.8669322845678704e-15 -1.5112637351394627e-15
rhumerus -44.31733273391487 -41.67646583971715 -63.97041484529113
rradius 4.111639489827951
rwrist 18.490831324001157
rhand -17.24341006858204 28.73066839041405
rfingers 7.125020000000054
rthumb 9.001089049759011 -8.580134639368326
39
root 0.3213010745585677 18.331726424606256 28.1567138676012 -5.189129107423413 -0.32417029413007026 -0.3710744899424796
lfemur 18.985339394068014 -3.2122166619054964 -22.0736535263891
ltibia 59.668237332640594
lfoot 26.810707976844736 -23.452878129228836
ltoes -7.988500979931866
rfemur -34.19796154902512 4.097296789938633 24.545537359701235
rtibia 13.957725608360334
rfoot -2.4449095572858015 -4.92669848949704
rtoes 6.902008947471122
lowerback 8.981269523985016 -3.0750651768309916 -2.437936913973931
upperback 0.11318819055119328 -4.114932511005016 3.4395998399393903
thorax -5.065789871123064 -1.9021956732206489 5.4484495380260665
lowerneck -15.206316709158024 -1.4089307375964228 -2.570797417008304
upperneck 24.042809163713372 -1.2401375068397793 -1.1399740670807308
head 10.067362355753742 -0.8389264680873858 -0.1675627770928847
lclavicle -1.7757489568968787e-15 -1.440915590306405e-15
lhumerus -19.998157797121266 -2.5665584763941096 79.57416493258167
lradius 19.555782871900938
lwrist 4.288939149659477
lhand -28.934864288942936 23.728076813362254
lfingers 7.125020000000054
lthumb -2.2884717529170504 53.680470836197934
rclavicle -1.7757489568968783e-15 -1.4409155903064046e-15
rhumerus -46.06960499404064 -40.3036461641614 -65.48639522301306
rradius 9.20931659251766
rwrist 16.046664770931134
rhand -17.10757253662687 27.485782084631218
rfingers 7.125020000000054
rthumb 9.13258490825838 -8.502135566619536
40
root 0.35724834136367994 18.416919256161083 27.36173985956163 -6.064399884273663 -0.15984828787194494 -1.6558833682072296
lfemur 9.067574916546437 -1.5439200262544888 -19.417466067692875
ltibia 69.60512005634344
lfoot 24.21758329262361 -21.780873118519374
ltoes -2.631321399459055
rfemur -24.67922401246237 5.127601641331406 27.035292718067417
rtibia 10.55091422939988
rfoot -0.9597017792362388 -4.681957851854412
rtoes 10.728706158349642
lowerback 8.800710671919191 -2.3474532393034324 -0.6778870517391185
upperback 0.23263708735739203 -2.9349021722387327 3.4570195591653774
thorax -4.793530026767892 -1.3844790490100012 4.2682892222264455
lowerneck -14.70052554049178 -1.8061783783677101 -2.426097509459372
upperneck 24.777310787471563 -1.8237005703287652 -1.1537295063990691
head 10.23253833066106 -1.1217673202303602 -0.2665564964173164
lclavicle -1.4734480055835487e-15 -1.2069408077996923e-15
lhumerus -23.222214603152366 -1.2386373686227643 79.55622107134988
lradius 13.995562968002801
lwrist 2.1041652824942982
lhand -28.9183069632411 25.44154371040996
lfingers 7.125020000000055
lthumb -2.2723955096059174 55.39809413590222
rclavicle -1.4734480055835483e-15 -1.2069408077996923e-15
rhumerus -40.53703951233815 -39.61364614991623 -65.59366412619248
rradius 5.866390061296691
rwrist 16.422789410765027
rhand -16.920296582981774 27.342162449483407
rfingers 7.125020000000055
rthumb 9.313103671159904 -8.793949506024806
